<svg xmlns="http://www.w3.org/2000/svg" viewBox="0 0 58 58" x="0px" y="0px"><title>Waning Crescent</title><g data-name="Waning Crescent"><path stroke="#363636" fill="#363636" d="M29,12a17.07,17.07,0,0,0-3,.28h0l-.19,0a17,17,0,0,0,0,33.38l.19,0h0A17,17,0,1,0,29,12Zm2.32,31.82.23-.14.38-.23q.4-.25.78-.51L33,42.7c.35-.26.69-.52,1-.81l0,0c.32-.27.62-.56.92-.86l.28-.29q.32-.34.63-.69l.27-.32q.34-.42.65-.85l.14-.19c.25-.36.48-.72.7-1.1l.17-.31q.24-.43.45-.87l.18-.39c.14-.3.26-.6.38-.91l.13-.33c.15-.41.28-.83.4-1.26,0-.08,0-.17.06-.25q.14-.52.24-1.06c0-.14,0-.28.07-.43q.08-.48.13-1c0-.14,0-.27,0-.41,0-.45.06-.91.06-1.37s0-.92-.06-1.37c0-.14,0-.27,0-.41q-.05-.49-.13-1c0-.14,0-.28-.07-.43q-.1-.54-.24-1.06c0-.08,0-.17-.06-.25-.12-.43-.25-.85-.4-1.26l-.13-.33c-.12-.31-.24-.61-.38-.91l-.18-.39q-.21-.44-.45-.87l-.17-.31c-.22-.38-.45-.74-.7-1.1l-.14-.19q-.31-.44-.65-.85L35.93,18q-.3-.36-.63-.69L35,17c-.3-.3-.6-.58-.92-.86l0,0c-.33-.28-.67-.55-1-.81l-.34-.24q-.38-.27-.78-.51l-.38-.23-.23-.14a15,15,0,0,1,0,29.64Z"/></g></svg>