<svg xmlns="http://www.w3.org/2000/svg" viewBox="0 0 58 58" x="0px" y="0px"><title>Waning Gibbous</title><g data-name="Waning Gibbous"><path stroke="#363636" fill="#363636" d="M32.19,12.31l-.19,0h0a17,17,0,1,0,0,33.44h0l.19,0a17,17,0,0,0,0-33.38ZM32,43.69l-.56-.13-.66-.16-.61-.2L29.56,43,29,42.71l-.6-.27-.57-.31-.56-.31-.54-.35-.53-.35c-.17-.13-.34-.27-.51-.4s-.33-.26-.49-.39-.32-.3-.47-.44-.3-.28-.45-.43-.29-.32-.44-.49-.28-.3-.41-.46-.27-.35-.4-.53-.25-.32-.36-.49-.24-.38-.36-.56-.22-.33-.32-.51-.21-.4-.32-.61-.19-.35-.27-.52-.18-.43-.27-.65-.15-.35-.22-.53-.15-.47-.22-.7-.12-.35-.17-.53-.12-.5-.17-.75-.08-.34-.11-.51-.08-.57-.11-.86,0-.29-.06-.44Q20,29.67,20,29t.06-1.33c0-.15,0-.29.06-.44s.06-.58.11-.86.08-.34.11-.51.1-.51.17-.75.11-.35.17-.53.14-.47.22-.7.15-.36.22-.54.17-.44.27-.65.18-.35.27-.52.2-.41.32-.61.21-.34.32-.51.23-.38.36-.56.24-.32.36-.49.26-.36.4-.53.27-.31.41-.46.29-.33.44-.49.3-.28.45-.43.31-.3.47-.44.33-.26.49-.39.33-.27.51-.4l.53-.35.54-.35.56-.31.56-.3.6-.27.59-.26.63-.22.61-.2.66-.16.56-.13a15,15,0,0,1,0,29.37Z"/></g></svg>