<svg xmlns="http://www.w3.org/2000/svg" viewBox="0 0 58 58" x="0px" y="0px"><title>Waxing Moon</title><g data-name="Waxing Crescent"><path stroke="#363636" fill="#363636" d="M32.19,12.31l-.19,0h0a17,17,0,1,0,0,33.44h0l.19,0a17,17,0,0,0,0-33.38ZM14,29A15,15,0,0,1,26.68,14.18l-.23.14-.38.23q-.4.24-.77.51L25,15.3c-.35.26-.69.52-1,.81l0,0c-.31.27-.61.56-.91.85l-.29.3q-.32.33-.62.69l-.28.33q-.33.41-.64.84l-.15.2c-.25.36-.48.72-.69,1.1l-.17.32q-.23.42-.45.86l-.18.4c-.13.3-.26.6-.38.9l-.13.33c-.15.41-.28.83-.4,1.26,0,.08,0,.17-.06.25q-.13.52-.24,1.06c0,.14-.05.28-.07.43q-.08.48-.13,1c0,.14,0,.27,0,.41,0,.45-.06.91-.06,1.37s0,.92.06,1.37c0,.14,0,.27,0,.41q.05.49.13,1c0,.14,0,.29.07.43q.1.53.24,1.06c0,.08,0,.17.06.25.12.43.25.85.4,1.26l.13.33c.12.31.24.61.38.9l.18.4q.21.44.45.86l.17.32c.22.37.45.74.69,1.1l.15.2q.31.43.64.84l.28.33q.3.35.62.69L23,41c.29.29.59.58.91.85l0,0c.33.28.67.55,1,.81l.34.24q.38.26.77.51l.38.23.23.14A15,15,0,0,1,14,29Z"/></g></svg>